REM DIRINDEX 1\5,1\2\6,1\2\7,1\3\8,1\3\9,1\4\10,1\4\11,1\4\12
REM DIRNAME folder01,folder02,folder03,folder04,folder05,folder06,folder07,folder08,folder09,folder10,folder11,folder12
TITLE ""
FILE "EJE_DB3000_5th_1A_26.mp3" MP3
  TRACK 01 AUDIO
    TITLE "0:"
    INDEX 01 00:00:00
  TRACK 02 AUDIO
    TITLE "10:cjc026_07584"
    INDEX 01 00:00:13
  TRACK 03 AUDIO
    TITLE "0:"
    INDEX 01 00:01:15
  TRACK 04 AUDIO
    TITLE "11:cjc026_07585"
    INDEX 01 00:01:66
  TRACK 05 AUDIO
    TITLE "0:"
    INDEX 01 00:03:19
  TRACK 06 AUDIO
    TITLE "12:cjc026_07586"
    INDEX 01 00:03:68
  TRACK 07 AUDIO
    TITLE "0:"
    INDEX 01 00:04:70
  TRACK 08 AUDIO
    TITLE "10:cjc026_07587"
    INDEX 01 00:05:46
  TRACK 09 AUDIO
    TITLE "0:"
    INDEX 01 00:06:65
  TRACK 10 AUDIO
    TITLE "11:cjc026_07588"
    INDEX 01 00:07:39
  TRACK 11 AUDIO
    TITLE "0:"
    INDEX 01 00:08:56
  TRACK 12 AUDIO
    TITLE "12:cjc026_07589"
    INDEX 01 00:09:30
  TRACK 13 AUDIO
    TITLE "0:"
    INDEX 01 00:10:51
  TRACK 14 AUDIO
    TITLE "10:cjc026_07590"
    INDEX 01 00:11:25
  TRACK 15 AUDIO
    TITLE "0:"
    INDEX 01 00:12:28
  TRACK 16 AUDIO
    TITLE "11:cjc026_07591"
    INDEX 01 00:13:02
  TRACK 17 AUDIO
    TITLE "0:"
    INDEX 01 00:14:19
  TRACK 18 AUDIO
    TITLE "12:cjc026_07592"
    INDEX 01 00:14:68
  TRACK 19 AUDIO
    TITLE "0:"
    INDEX 01 00:15:74
  TRACK 20 AUDIO
    TITLE "10:cjc026_07593"
    INDEX 01 00:16:48
  TRACK 21 AUDIO
    TITLE "0:"
    INDEX 01 00:17:74
  TRACK 22 AUDIO
    TITLE "11:cjc026_07594"
    INDEX 01 00:18:48
  TRACK 23 AUDIO
    TITLE "0:"
    INDEX 01 00:19:63
  TRACK 24 AUDIO
    TITLE "12:cjc026_07595"
    INDEX 01 00:20:37
  TRACK 25 AUDIO
    TITLE "0:"
    INDEX 01 00:21:64
  TRACK 26 AUDIO
    TITLE "10:cjc026_07596"
    INDEX 01 00:22:38
  TRACK 27 AUDIO
    TITLE "0:"
    INDEX 01 00:23:36
  TRACK 28 AUDIO
    TITLE "11:cjc026_07597"
    INDEX 01 00:24:16
  TRACK 29 AUDIO
    TITLE "0:"
    INDEX 01 00:25:46
  TRACK 30 AUDIO
    TITLE "12:cjc026_07598"
    INDEX 01 00:26:20
  TRACK 31 AUDIO
    TITLE "0:"
    INDEX 01 00:27:18
  TRACK 32 AUDIO
    TITLE "10:cjc026_07599"
    INDEX 01 00:27:73
  TRACK 33 AUDIO
    TITLE "0:"
    INDEX 01 00:28:72
  TRACK 34 AUDIO
    TITLE "11:cjc026_07600"
    INDEX 01 00:29:46
  TRACK 35 AUDIO
    TITLE "0:"
    INDEX 01 00:30:57
  TRACK 36 AUDIO
    TITLE "12:cjc026_07601"
    INDEX 01 00:31:31
  TRACK 37 AUDIO
    TITLE "0:"
    INDEX 01 00:32:31
  TRACK 38 AUDIO
    TITLE "10:cjc026_07602"
    INDEX 01 00:33:05
  TRACK 39 AUDIO
    TITLE "0:"
    INDEX 01 00:33:71
  TRACK 40 AUDIO
    TITLE "11:cjc026_07603"
    INDEX 01 00:34:45
  TRACK 41 AUDIO
    TITLE "0:"
    INDEX 01 00:35:68
  TRACK 42 AUDIO
    TITLE "12:cjc026_07604"
    INDEX 01 00:36:42
  TRACK 43 AUDIO
    TITLE "0:"
    INDEX 01 00:37:34
  TRACK 44 AUDIO
    TITLE "10:cjc026_07605"
    INDEX 01 00:38:10
  TRACK 45 AUDIO
    TITLE "0:"
    INDEX 01 00:39:05
  TRACK 46 AUDIO
    TITLE "11:cjc026_07606"
    INDEX 01 00:39:56
  TRACK 47 AUDIO
    TITLE "0:"
    INDEX 01 00:40:48
  TRACK 48 AUDIO
    TITLE "12:cjc026_07607"
    INDEX 01 00:41:24
  TRACK 49 AUDIO
    TITLE "0:"
    INDEX 01 00:42:19
  TRACK 50 AUDIO
    TITLE "10:cjc026_07608"
    INDEX 01 00:42:68
  TRACK 51 AUDIO
    TITLE "0:"
    INDEX 01 00:44:05
  TRACK 52 AUDIO
    TITLE "11:cjc026_07609"
    INDEX 01 00:44:56
  TRACK 53 AUDIO
    TITLE "0:"
    INDEX 01 00:45:53
  TRACK 54 AUDIO
    TITLE "12:cjc026_07610"
    INDEX 01 00:46:29
  TRACK 55 AUDIO
    TITLE "0:"
    INDEX 01 00:47:40
  TRACK 56 AUDIO
    TITLE "10:cjc026_07611"
    INDEX 01 00:48:14
  TRACK 57 AUDIO
    TITLE "0:"
    INDEX 01 00:49:12
  TRACK 58 AUDIO
    TITLE "11:cjc026_07612"
    INDEX 01 00:49:65
  TRACK 59 AUDIO
    TITLE "0:"
    INDEX 01 00:50:60
  TRACK 60 AUDIO
    TITLE "12:cjc026_07613"
    INDEX 01 00:51:34
  TRACK 61 AUDIO
    TITLE "0:"
    INDEX 01 00:52:32
  TRACK 62 AUDIO
    TITLE "10:cjc026_07614"
    INDEX 01 00:53:09
  TRACK 63 AUDIO
    TITLE "0:"
    INDEX 01 00:54:01
  TRACK 64 AUDIO
    TITLE "11:cjc026_07615"
    INDEX 01 00:54:54
  TRACK 65 AUDIO
    TITLE "0:"
    INDEX 01 00:56:04
  TRACK 66 AUDIO
    TITLE "12:cjc026_07616"
    INDEX 01 00:56:55
  TRACK 67 AUDIO
    TITLE "0:"
    INDEX 01 00:57:46
